<?xml version="1.0" standalone="no"?>
<svg xmlns="http://www.w3.org/2000/svg" xmlns:xlink="http://www.w3.org/1999/xlink" width="155pt" height="188pt" viewBox="0.00 0.00 155.36 188.00">
<g id="graph0" class="graph" transform="translate(6.216706308444682,131.07822348535035) scale(0.6846000747835825)" data-name="G">

<polygon fill="white" stroke="none" points="-4,4 -4,-184 151.36,-184 151.36,4 -4,4" style=""/>
<!-- main -->
<g id="node1" class="node" pointer-events="visible" data-name="main">

<ellipse fill="none" stroke="black" cx="64.68" cy="-162" rx="30.19" ry="18" style=""/>
<text text-anchor="middle" x="64.68" y="-157.8" font-family="Times,serif" font-size="14.00" style="">main</text>
</g>
<!-- printNumbers -->
<g id="node2" class="node" pointer-events="visible" data-name="printNumbers">

<ellipse fill="none" stroke="black" cx="64.68" cy="-18" rx="64.86" ry="18" style=""/>
<text text-anchor="middle" x="64.68" y="-13.8" font-family="Times,serif" font-size="14.00" style="">printNumbers</text>
</g>
<!-- main&#45;&gt;printNumbers -->
<g id="edge1" class="edge" data-name="main-&gt;printNumbers">

<path fill="none" stroke="black" d="M58.19,-144.1C54.6,-133.84 50.5,-120.36 48.68,-108 46.34,-92.17 46.34,-87.83 48.68,-72 49.89,-63.82 52.09,-55.16 54.48,-47.26" style=""/>
<polygon fill="black" stroke="black" points="57.79,-48.4 57.56,-37.81 51.13,-46.23 57.79,-48.4" style=""/>
</g>
<!-- factorial -->
<g id="node3" class="node" pointer-events="visible" data-name="factorial">

<ellipse fill="none" stroke="black" cx="100.68" cy="-90" rx="43.41" ry="18" style=""/>
<text text-anchor="middle" x="100.68" y="-85.8" font-family="Times,serif" font-size="14.00" style="">factorial</text>
</g>
<!-- main&#45;&gt;factorial -->
<g id="edge2" class="edge" data-name="main-&gt;factorial">

<path fill="none" stroke="black" d="M73.21,-144.41C77.27,-136.51 82.24,-126.85 86.83,-117.94" style=""/>
<polygon fill="black" stroke="black" points="89.8,-119.8 91.27,-109.3 83.58,-116.59 89.8,-119.8" style=""/>
</g>
<!-- printNumbers&#45;&gt;printNumbers -->
<g id="edge3" class="edge" data-name="printNumbers-&gt;printNumbers">

<path fill="none" stroke="black" d="M109.75,-31.29C129.92,-32.55 147.36,-28.12 147.36,-18 147.36,-9.85 136.06,-5.39 121.14,-4.62" style=""/>
<polygon fill="black" stroke="black" points="121.24,-1.12 111.26,-4.7 121.29,-8.12 121.24,-1.12" style=""/>
</g>
<!-- factorial&#45;&gt;printNumbers -->
<g id="edge4" class="edge" data-name="factorial-&gt;printNumbers">

<path fill="none" stroke="black" d="M91.96,-72.05C88,-64.35 83.21,-55.03 78.75,-46.36" style=""/>
<polygon fill="black" stroke="black" points="81.94,-44.91 74.25,-37.62 75.72,-48.11 81.94,-44.91" style=""/>
</g>
</g>
</svg>