<?xml version="1.0" encoding="UTF-8" standalone="no"?>
<!DOCTYPE svg PUBLIC "-//W3C//DTD SVG 1.1//EN"
 "http://www.w3.org/Graphics/SVG/1.1/DTD/svg11.dtd">
<!-- Generated by graphviz version 2.43.0 (0)
 -->
<!-- Title: finite_state_machine Pages: 1 -->
<svg width="317pt" height="111pt"
 viewBox="0.00 0.00 317.00 111.00" xmlns="http://www.w3.org/2000/svg" xmlns:xlink="http://www.w3.org/1999/xlink">
<g id="graph0" class="graph" transform="scale(1 1) rotate(0) translate(4 107)">
<title>finite_state_machine</title>
<polygon fill="white" stroke="transparent" points="-4,4 -4,-107 313,-107 313,4 -4,4"/>
<!-- nfa: -->
<g id="node1" class="node">
<title>nfa:</title>
<text text-anchor="middle" x="27" y="-14.9" font-family="Arial" font-size="12.00">nfa:</text>
</g>
<!-- START -->
<g id="node2" class="node">
<title>START</title>
<ellipse fill="#e5e5e5" stroke="black" cx="27" cy="-56" rx="1.8" ry="1.8"/>
</g>
<!-- S -->
<g id="node4" class="node">
<title>S</title>
<ellipse fill="#e5e5e5" stroke="black" cx="109" cy="-56" rx="18" ry="18"/>
<text text-anchor="middle" x="109" y="-53.5" font-family="Arial" font-size="10.00">S</text>
</g>
<!-- START&#45;&gt;S -->
<g id="edge1" class="edge">
<title>START&#45;&gt;S</title>
<path fill="none" stroke="black" d="M28.9,-56C33.99,-56 59.68,-56 80.43,-56"/>
<polygon fill="black" stroke="black" points="80.69,-59.5 90.69,-56 80.69,-52.5 80.69,-59.5"/>
</g>
<!-- FINAL -->
<g id="node3" class="node">
<title>FINAL</title>
<ellipse fill="#e5e5e5" stroke="black" cx="278" cy="-56" rx="27" ry="18"/>
<ellipse fill="none" stroke="black" cx="278" cy="-56" rx="31" ry="22"/>
<text text-anchor="middle" x="278" y="-53.5" font-family="Arial" font-size="10.00">FINAL</text>
</g>
<!-- S&#45;&gt;S -->
<g id="edge3" class="edge">
<title>S&#45;&gt;S</title>
<path fill="none" stroke="black" d="M102.62,-73.04C101.32,-82.86 103.45,-92 109,-92 112.47,-92 114.6,-88.43 115.4,-83.35"/>
<polygon fill="black" stroke="black" points="118.9,-83.03 115.38,-73.04 111.9,-83.04 118.9,-83.03"/>
<text text-anchor="middle" x="109" y="-95" font-family="Arial" font-size="10.00">b</text>
</g>
<!-- A -->
<g id="node5" class="node">
<title>A</title>
<ellipse fill="#e5e5e5" stroke="black" cx="187" cy="-56" rx="18" ry="18"/>
<text text-anchor="middle" x="187" y="-53.5" font-family="Arial" font-size="10.00">A</text>
</g>
<!-- S&#45;&gt;A -->
<g id="edge2" class="edge">
<title>S&#45;&gt;A</title>
<path fill="none" stroke="black" d="M127.25,-56C136.48,-56 148.07,-56 158.51,-56"/>
<polygon fill="black" stroke="black" points="158.82,-59.5 168.82,-56 158.82,-52.5 158.82,-59.5"/>
<text text-anchor="middle" x="148" y="-59" font-family="Arial" font-size="10.00">a</text>
</g>
<!-- A&#45;&gt;FINAL -->
<g id="edge5" class="edge">
<title>A&#45;&gt;FINAL</title>
<path fill="none" stroke="black" d="M205.16,-56C214.21,-56 225.72,-56 236.87,-56"/>
<polygon fill="black" stroke="black" points="236.92,-59.5 246.92,-56 236.92,-52.5 236.92,-59.5"/>
<text text-anchor="middle" x="226" y="-59" font-family="Arial" font-size="10.00">b</text>
</g>
<!-- A&#45;&gt;A -->
<g id="edge4" class="edge">
<title>A&#45;&gt;A</title>
<path fill="none" stroke="black" d="M180.27,-73.04C178.89,-82.86 181.14,-92 187,-92 190.66,-92 192.92,-88.43 193.75,-83.35"/>
<polygon fill="black" stroke="black" points="197.25,-83.03 193.73,-73.04 190.25,-83.04 197.25,-83.03"/>
<text text-anchor="middle" x="187" y="-95" font-family="Arial" font-size="10.00">a</text>
</g>
</g>
</svg>
