<?xml version="1.0" encoding="UTF-8" standalone="no"?>
<!DOCTYPE svg PUBLIC "-//W3C//DTD SVG 1.1//EN"
 "http://www.w3.org/Graphics/SVG/1.1/DTD/svg11.dtd">
<!-- Generated by graphviz version 2.43.0 (0)
 -->
<!-- Title: finite_state_machine Pages: 1 -->
<svg width="870pt" height="510pt"
 viewBox="0.00 0.00 870.38 510.47" xmlns="http://www.w3.org/2000/svg" xmlns:xlink="http://www.w3.org/1999/xlink">
<g id="graph0" class="graph" transform="scale(1 1) rotate(0) translate(4 506.47)">
<title>finite_state_machine</title>
<polygon fill="white" stroke="transparent" points="-4,4 -4,-506.47 866.38,-506.47 866.38,4 -4,4"/>
<!-- dfa: -->
<g id="node1" class="node">
<title>dfa:</title>
<text text-anchor="middle" x="27" y="-194.37" font-family="Arial" font-size="12.00">dfa:</text>
</g>
<!-- START -->
<g id="node2" class="node">
<title>START</title>
<ellipse fill="#e5e5e5" stroke="black" cx="27" cy="-235.47" rx="1.8" ry="1.8"/>
</g>
<!-- S -->
<g id="node10" class="node">
<title>S</title>
<ellipse fill="#e5e5e5" stroke="black" cx="118" cy="-235.47" rx="27" ry="18"/>
<text text-anchor="middle" x="118" y="-232.97" font-family="Arial" font-size="10.00">S</text>
</g>
<!-- START&#45;&gt;S -->
<g id="edge1" class="edge">
<title>START&#45;&gt;S</title>
<path fill="none" stroke="black" d="M29,-235.47C34.21,-235.47 58.85,-235.47 80.74,-235.47"/>
<polygon fill="black" stroke="black" points="80.84,-238.97 90.84,-235.47 80.84,-231.97 80.84,-238.97"/>
</g>
<!-- A+B+C+R+S -->
<g id="node3" class="node">
<title>A+B+C+R+S</title>
<ellipse fill="#e5e5e5" stroke="black" cx="813.64" cy="-259.47" rx="44.96" ry="18"/>
<ellipse fill="none" stroke="black" cx="813.64" cy="-259.47" rx="48.98" ry="22"/>
<text text-anchor="middle" x="813.64" y="-256.97" font-family="Arial" font-size="10.00">A+B+C+R+S</text>
</g>
<!-- A+B+C+R+S&#45;&gt;A+B+C+R+S -->
<g id="edge36" class="edge">
<title>A+B+C+R+S&#45;&gt;A+B+C+R+S</title>
<path fill="none" stroke="black" d="M799,-280.46C797.2,-290.55 802.07,-299.47 813.64,-299.47 821.04,-299.47 825.71,-295.81 827.63,-290.53"/>
<polygon fill="black" stroke="black" points="831.13,-290.66 828.27,-280.46 824.14,-290.21 831.13,-290.66"/>
<text text-anchor="middle" x="813.64" y="-302.47" font-family="Arial" font-size="10.00">a, b, c</text>
</g>
<!-- A+B+R+S -->
<g id="node4" class="node">
<title>A+B+R+S</title>
<ellipse fill="#e5e5e5" stroke="black" cx="544.82" cy="-379.47" rx="36.49" ry="18"/>
<ellipse fill="none" stroke="black" cx="544.82" cy="-379.47" rx="40.49" ry="22"/>
<text text-anchor="middle" x="544.82" y="-376.97" font-family="Arial" font-size="10.00">A+B+R+S</text>
</g>
<!-- A+B+R+S&#45;&gt;A+B+R+S -->
<g id="edge30" class="edge">
<title>A+B+R+S&#45;&gt;A+B+R+S</title>
<path fill="none" stroke="black" d="M533.42,-400.87C532.18,-410.79 535.98,-419.47 544.82,-419.47 550.34,-419.47 553.9,-416.08 555.49,-411.11"/>
<polygon fill="black" stroke="black" points="559,-411.09 556.21,-400.87 552.01,-410.59 559,-411.09"/>
<text text-anchor="middle" x="544.82" y="-422.47" font-family="Arial" font-size="10.00">a, b</text>
</g>
<!-- A+B+C+S -->
<g id="node17" class="node">
<title>A+B+C+S</title>
<ellipse fill="#e5e5e5" stroke="black" cx="664.4" cy="-259.47" rx="36.49" ry="18"/>
<text text-anchor="middle" x="664.4" y="-256.97" font-family="Arial" font-size="10.00">A+B+C+S</text>
</g>
<!-- A+B+R+S&#45;&gt;A+B+C+S -->
<g id="edge29" class="edge">
<title>A+B+R+S&#45;&gt;A+B+C+S</title>
<path fill="none" stroke="black" d="M576.53,-365.57C587.84,-359.51 600.23,-351.68 609.9,-342.47 626.87,-326.31 640.97,-303.74 650.43,-286.22"/>
<polygon fill="black" stroke="black" points="653.68,-287.56 655.19,-277.07 647.47,-284.33 653.68,-287.56"/>
<text text-anchor="middle" x="606.9" y="-349.47" font-family="Arial" font-size="10.00">c</text>
</g>
<!-- A+C+R+S -->
<g id="node5" class="node">
<title>A+C+R+S</title>
<ellipse fill="#e5e5e5" stroke="black" cx="544.82" cy="-194.47" rx="37.16" ry="18"/>
<ellipse fill="none" stroke="black" cx="544.82" cy="-194.47" rx="41.17" ry="22"/>
<text text-anchor="middle" x="544.82" y="-191.97" font-family="Arial" font-size="10.00">A+C+R+S</text>
</g>
<!-- A+C+R+S&#45;&gt;A+C+R+S -->
<g id="edge33" class="edge">
<title>A+C+R+S&#45;&gt;A+C+R+S</title>
<path fill="none" stroke="black" d="M533.42,-215.87C532.18,-225.79 535.98,-234.47 544.82,-234.47 550.34,-234.47 553.9,-231.08 555.49,-226.11"/>
<polygon fill="black" stroke="black" points="559,-226.09 556.21,-215.87 552.01,-225.59 559,-226.09"/>
<text text-anchor="middle" x="544.82" y="-237.47" font-family="Arial" font-size="10.00">a, c</text>
</g>
<!-- A+C+R+S&#45;&gt;A+B+C+S -->
<g id="edge32" class="edge">
<title>A+C+R+S&#45;&gt;A+B+C+S</title>
<path fill="none" stroke="black" d="M573.98,-210.04C590.99,-219.44 612.75,-231.47 630.54,-241.3"/>
<polygon fill="black" stroke="black" points="628.99,-244.44 639.44,-246.22 632.38,-238.32 628.99,-244.44"/>
<text text-anchor="middle" x="606.9" y="-232.47" font-family="Arial" font-size="10.00">b</text>
</g>
<!-- A+R+S -->
<g id="node6" class="node">
<title>A+R+S</title>
<ellipse fill="#e5e5e5" stroke="black" cx="316.43" cy="-420.47" rx="29.37" ry="18"/>
<ellipse fill="none" stroke="black" cx="316.43" cy="-420.47" rx="33.37" ry="22"/>
<text text-anchor="middle" x="316.43" y="-417.97" font-family="Arial" font-size="10.00">A+R+S</text>
</g>
<!-- A+R+S&#45;&gt;A+R+S -->
<g id="edge16" class="edge">
<title>A+R+S&#45;&gt;A+R+S</title>
<path fill="none" stroke="black" d="M306.51,-441.87C305.43,-451.79 308.73,-460.47 316.43,-460.47 321.25,-460.47 324.34,-457.08 325.72,-452.11"/>
<polygon fill="black" stroke="black" points="329.23,-452.06 326.36,-441.87 322.25,-451.63 329.23,-452.06"/>
<text text-anchor="middle" x="316.43" y="-463.47" font-family="Arial" font-size="10.00">a</text>
</g>
<!-- A+B+S -->
<g id="node14" class="node">
<title>A+B+S</title>
<ellipse fill="#e5e5e5" stroke="black" cx="421.3" cy="-349.47" rx="28.69" ry="18"/>
<text text-anchor="middle" x="421.3" y="-346.97" font-family="Arial" font-size="10.00">A+B+S</text>
</g>
<!-- A+R+S&#45;&gt;A+B+S -->
<g id="edge14" class="edge">
<title>A+R+S&#45;&gt;A+B+S</title>
<path fill="none" stroke="black" d="M349.95,-421.63C358.18,-420.72 366.72,-418.64 373.87,-414.47 388.95,-405.66 400.43,-389.79 408.2,-375.94"/>
<polygon fill="black" stroke="black" points="411.46,-377.26 412.99,-366.78 405.26,-374.02 411.46,-377.26"/>
<text text-anchor="middle" x="370.87" y="-420.47" font-family="Arial" font-size="10.00">b</text>
</g>
<!-- A+C+S -->
<g id="node15" class="node">
<title>A+C+S</title>
<ellipse fill="#e5e5e5" stroke="black" cx="421.3" cy="-226.47" rx="29.37" ry="18"/>
<text text-anchor="middle" x="421.3" y="-223.97" font-family="Arial" font-size="10.00">A+C+S</text>
</g>
<!-- A+R+S&#45;&gt;A+C+S -->
<g id="edge15" class="edge">
<title>A+R+S&#45;&gt;A+C+S</title>
<path fill="none" stroke="black" d="M343.46,-407.1C354.23,-400.41 366.01,-391.39 373.87,-380.47 374.82,-379.15 399.04,-297.98 412.11,-254.03"/>
<polygon fill="black" stroke="black" points="415.53,-254.82 415.02,-244.24 408.82,-252.83 415.53,-254.82"/>
<text text-anchor="middle" x="370.87" y="-391.47" font-family="Arial" font-size="10.00">c</text>
</g>
<!-- B+C+R+S -->
<g id="node7" class="node">
<title>B+C+R+S</title>
<ellipse fill="#e5e5e5" stroke="black" cx="544.82" cy="-103.47" rx="37.16" ry="18"/>
<ellipse fill="none" stroke="black" cx="544.82" cy="-103.47" rx="41.17" ry="22"/>
<text text-anchor="middle" x="544.82" y="-100.97" font-family="Arial" font-size="10.00">B+C+R+S</text>
</g>
<!-- B+C+R+S&#45;&gt;B+C+R+S -->
<g id="edge35" class="edge">
<title>B+C+R+S&#45;&gt;B+C+R+S</title>
<path fill="none" stroke="black" d="M533.42,-124.87C532.18,-134.79 535.98,-143.47 544.82,-143.47 550.34,-143.47 553.9,-140.08 555.49,-135.11"/>
<polygon fill="black" stroke="black" points="559,-135.09 556.21,-124.87 552.01,-134.59 559,-135.09"/>
<text text-anchor="middle" x="544.82" y="-146.47" font-family="Arial" font-size="10.00">b, c</text>
</g>
<!-- B+C+R+S&#45;&gt;A+B+C+S -->
<g id="edge34" class="edge">
<title>B+C+R+S&#45;&gt;A+B+C+S</title>
<path fill="none" stroke="black" d="M561.19,-123.86C582.58,-152.25 621.31,-203.63 644.46,-234.34"/>
<polygon fill="black" stroke="black" points="641.74,-236.54 650.55,-242.42 647.33,-232.33 641.74,-236.54"/>
<text text-anchor="middle" x="606.9" y="-189.47" font-family="Arial" font-size="10.00">a</text>
</g>
<!-- B+R+S -->
<g id="node8" class="node">
<title>B+R+S</title>
<ellipse fill="#e5e5e5" stroke="black" cx="316.43" cy="-235.47" rx="29.37" ry="18"/>
<ellipse fill="none" stroke="black" cx="316.43" cy="-235.47" rx="33.37" ry="22"/>
<text text-anchor="middle" x="316.43" y="-232.97" font-family="Arial" font-size="10.00">B+R+S</text>
</g>
<!-- B+R+S&#45;&gt;B+R+S -->
<g id="edge23" class="edge">
<title>B+R+S&#45;&gt;B+R+S</title>
<path fill="none" stroke="black" d="M306.51,-256.87C305.43,-266.79 308.73,-275.47 316.43,-275.47 321.25,-275.47 324.34,-272.08 325.72,-267.11"/>
<polygon fill="black" stroke="black" points="329.23,-267.06 326.36,-256.87 322.25,-266.63 329.23,-267.06"/>
<text text-anchor="middle" x="316.43" y="-278.47" font-family="Arial" font-size="10.00">b</text>
</g>
<!-- B+R+S&#45;&gt;A+B+S -->
<g id="edge21" class="edge">
<title>B+R+S&#45;&gt;A+B+S</title>
<path fill="none" stroke="black" d="M334.52,-254.15C345.74,-266.43 360.71,-282.87 373.87,-297.47 382.39,-306.92 391.75,-317.39 399.82,-326.43"/>
<polygon fill="black" stroke="black" points="397.26,-328.82 406.52,-333.96 402.48,-324.17 397.26,-328.82"/>
<text text-anchor="middle" x="370.87" y="-300.47" font-family="Arial" font-size="10.00">a</text>
</g>
<!-- B+C+S -->
<g id="node16" class="node">
<title>B+C+S</title>
<ellipse fill="#e5e5e5" stroke="black" cx="421.3" cy="-54.47" rx="29.37" ry="18"/>
<text text-anchor="middle" x="421.3" y="-51.97" font-family="Arial" font-size="10.00">B+C+S</text>
</g>
<!-- B+R+S&#45;&gt;B+C+S -->
<g id="edge22" class="edge">
<title>B+R+S&#45;&gt;B+C+S</title>
<path fill="none" stroke="black" d="M335.66,-217.24C340.61,-211.78 345.73,-205.61 349.87,-199.47 375.71,-161.09 397.55,-111.82 409.78,-81.72"/>
<polygon fill="black" stroke="black" points="413.08,-82.87 413.55,-72.29 406.58,-80.27 413.08,-82.87"/>
<text text-anchor="middle" x="370.87" y="-172.47" font-family="Arial" font-size="10.00">c</text>
</g>
<!-- C+R+S -->
<g id="node9" class="node">
<title>C+R+S</title>
<ellipse fill="#e5e5e5" stroke="black" cx="316.43" cy="-50.47" rx="29.37" ry="18"/>
<ellipse fill="none" stroke="black" cx="316.43" cy="-50.47" rx="33.37" ry="22"/>
<text text-anchor="middle" x="316.43" y="-47.97" font-family="Arial" font-size="10.00">C+R+S</text>
</g>
<!-- C+R+S&#45;&gt;C+R+S -->
<g id="edge28" class="edge">
<title>C+R+S&#45;&gt;C+R+S</title>
<path fill="none" stroke="black" d="M306.51,-71.87C305.43,-81.79 308.73,-90.47 316.43,-90.47 321.25,-90.47 324.34,-87.08 325.72,-82.11"/>
<polygon fill="black" stroke="black" points="329.23,-82.06 326.36,-71.87 322.25,-81.63 329.23,-82.06"/>
<text text-anchor="middle" x="316.43" y="-93.47" font-family="Arial" font-size="10.00">c</text>
</g>
<!-- C+R+S&#45;&gt;A+C+S -->
<g id="edge26" class="edge">
<title>C+R+S&#45;&gt;A+C+S</title>
<path fill="none" stroke="black" d="M331.21,-70.52C342.99,-87.94 360.17,-113.99 373.87,-137.47 385.87,-158.04 398.29,-182.02 407.27,-199.9"/>
<polygon fill="black" stroke="black" points="404.28,-201.75 411.87,-209.14 410.55,-198.63 404.28,-201.75"/>
<text text-anchor="middle" x="370.87" y="-140.47" font-family="Arial" font-size="10.00">a</text>
</g>
<!-- C+R+S&#45;&gt;B+C+S -->
<g id="edge27" class="edge">
<title>C+R+S&#45;&gt;B+C+S</title>
<path fill="none" stroke="black" d="M349.98,-51.73C360.05,-52.12 371.23,-52.56 381.67,-52.96"/>
<polygon fill="black" stroke="black" points="381.65,-56.47 391.78,-53.36 381.93,-49.47 381.65,-56.47"/>
<text text-anchor="middle" x="370.87" y="-56.47" font-family="Arial" font-size="10.00">b</text>
</g>
<!-- A+S -->
<g id="node11" class="node">
<title>A+S</title>
<ellipse fill="#e5e5e5" stroke="black" cx="214" cy="-390.47" rx="27" ry="18"/>
<text text-anchor="middle" x="214" y="-387.97" font-family="Arial" font-size="10.00">A+S</text>
</g>
<!-- S&#45;&gt;A+S -->
<g id="edge2" class="edge">
<title>S&#45;&gt;A+S</title>
<path fill="none" stroke="black" d="M129.06,-252.05C145.53,-279.21 178.34,-333.31 197.7,-365.24"/>
<polygon fill="black" stroke="black" points="194.83,-367.26 203.01,-374 200.82,-363.63 194.83,-367.26"/>
<text text-anchor="middle" x="166" y="-321.47" font-family="Arial" font-size="10.00">a</text>
</g>
<!-- B+S -->
<g id="node12" class="node">
<title>B+S</title>
<ellipse fill="#e5e5e5" stroke="black" cx="214" cy="-235.47" rx="27" ry="18"/>
<text text-anchor="middle" x="214" y="-232.97" font-family="Arial" font-size="10.00">B+S</text>
</g>
<!-- S&#45;&gt;B+S -->
<g id="edge3" class="edge">
<title>S&#45;&gt;B+S</title>
<path fill="none" stroke="black" d="M145.18,-235.47C154.96,-235.47 166.25,-235.47 176.77,-235.47"/>
<polygon fill="black" stroke="black" points="176.96,-238.97 186.96,-235.47 176.96,-231.97 176.96,-238.97"/>
<text text-anchor="middle" x="166" y="-238.47" font-family="Arial" font-size="10.00">b</text>
</g>
<!-- C+S -->
<g id="node13" class="node">
<title>C+S</title>
<ellipse fill="#e5e5e5" stroke="black" cx="214" cy="-139.47" rx="27" ry="18"/>
<text text-anchor="middle" x="214" y="-136.97" font-family="Arial" font-size="10.00">C+S</text>
</g>
<!-- S&#45;&gt;C+S -->
<g id="edge4" class="edge">
<title>S&#45;&gt;C+S</title>
<path fill="none" stroke="black" d="M133.69,-220.47C149.14,-204.69 173.62,-179.68 191.3,-161.63"/>
<polygon fill="black" stroke="black" points="193.92,-163.96 198.42,-154.36 188.92,-159.06 193.92,-163.96"/>
<text text-anchor="middle" x="166" y="-193.47" font-family="Arial" font-size="10.00">c</text>
</g>
<!-- A+S&#45;&gt;A+R+S -->
<g id="edge7" class="edge">
<title>A+S&#45;&gt;A+R+S</title>
<path fill="none" stroke="black" d="M239.06,-397.65C250.05,-400.94 263.35,-404.91 275.76,-408.62"/>
<polygon fill="black" stroke="black" points="274.88,-412.01 285.46,-411.51 276.88,-405.3 274.88,-412.01"/>
<text text-anchor="middle" x="262" y="-408.47" font-family="Arial" font-size="10.00">a</text>
</g>
<!-- A+S&#45;&gt;A+B+S -->
<g id="edge5" class="edge">
<title>A+S&#45;&gt;A+B+S</title>
<path fill="none" stroke="black" d="M222.24,-407.95C232.28,-429.58 252.67,-465.37 283,-480.47 309.6,-493.71 324.36,-495.71 349.87,-480.47 387.1,-458.21 405.8,-408.74 414.25,-377.37"/>
<polygon fill="black" stroke="black" points="417.69,-378.04 416.74,-367.49 410.91,-376.33 417.69,-378.04"/>
<text text-anchor="middle" x="316.43" y="-494.47" font-family="Arial" font-size="10.00">b</text>
</g>
<!-- A+S&#45;&gt;A+C+S -->
<g id="edge6" class="edge">
<title>A+S&#45;&gt;A+C+S</title>
<path fill="none" stroke="black" d="M240.31,-385.83C268.97,-379.64 316.06,-366.55 349.87,-342.47 380.66,-320.53 400.53,-280.5 411.06,-253.69"/>
<polygon fill="black" stroke="black" points="414.42,-254.72 414.65,-244.13 407.86,-252.27 414.42,-254.72"/>
<text text-anchor="middle" x="316.43" y="-377.47" font-family="Arial" font-size="10.00">c</text>
</g>
<!-- B+S&#45;&gt;B+R+S -->
<g id="edge10" class="edge">
<title>B+S&#45;&gt;B+R+S</title>
<path fill="none" stroke="black" d="M241.13,-235.47C250.82,-235.47 262.07,-235.47 272.85,-235.47"/>
<polygon fill="black" stroke="black" points="272.97,-238.97 282.97,-235.47 272.97,-231.97 272.97,-238.97"/>
<text text-anchor="middle" x="262" y="-238.47" font-family="Arial" font-size="10.00">b</text>
</g>
<!-- B+S&#45;&gt;A+B+S -->
<g id="edge8" class="edge">
<title>B+S&#45;&gt;A+B+S</title>
<path fill="none" stroke="black" d="M229.19,-250.69C242.17,-263.92 262.45,-282.9 283,-295.47 315.45,-315.31 356.45,-330.3 385.16,-339.39"/>
<polygon fill="black" stroke="black" points="384.18,-342.76 394.77,-342.36 386.25,-336.07 384.18,-342.76"/>
<text text-anchor="middle" x="316.43" y="-330.47" font-family="Arial" font-size="10.00">a</text>
</g>
<!-- B+S&#45;&gt;B+C+S -->
<g id="edge9" class="edge">
<title>B+S&#45;&gt;B+C+S</title>
<path fill="none" stroke="black" d="M224.32,-218.77C235.76,-199.78 256.89,-169.12 283,-151.47 318.01,-127.79 339.94,-148.66 373.87,-123.47 388.61,-112.52 400.16,-95.43 408.05,-80.99"/>
<polygon fill="black" stroke="black" points="411.23,-82.47 412.71,-71.98 405.01,-79.26 411.23,-82.47"/>
<text text-anchor="middle" x="316.43" y="-154.47" font-family="Arial" font-size="10.00">c</text>
</g>
<!-- C+S&#45;&gt;C+R+S -->
<g id="edge13" class="edge">
<title>C+S&#45;&gt;C+R+S</title>
<path fill="none" stroke="black" d="M231.14,-125.17C246.33,-111.7 269.41,-91.25 287.58,-75.15"/>
<polygon fill="black" stroke="black" points="290.37,-77.35 295.53,-68.1 285.73,-72.11 290.37,-77.35"/>
<text text-anchor="middle" x="262" y="-103.47" font-family="Arial" font-size="10.00">c</text>
</g>
<!-- C+S&#45;&gt;A+C+S -->
<g id="edge11" class="edge">
<title>C+S&#45;&gt;A+C+S</title>
<path fill="none" stroke="black" d="M238.07,-148.24C265.06,-158.61 311,-176.6 349.87,-193.47 362.57,-198.98 376.4,-205.38 388.42,-211.06"/>
<polygon fill="black" stroke="black" points="387.08,-214.3 397.61,-215.43 390.09,-207.98 387.08,-214.3"/>
<text text-anchor="middle" x="316.43" y="-196.47" font-family="Arial" font-size="10.00">a</text>
</g>
<!-- C+S&#45;&gt;B+C+S -->
<g id="edge12" class="edge">
<title>C+S&#45;&gt;B+C+S</title>
<path fill="none" stroke="black" d="M218.23,-121.47C224.64,-91.78 242.05,-33.35 283,-8.47 318.82,13.3 366.23,-12.81 394.93,-33.66"/>
<polygon fill="black" stroke="black" points="393.12,-36.67 403.21,-39.9 397.33,-31.08 393.12,-36.67"/>
<text text-anchor="middle" x="316.43" y="-11.47" font-family="Arial" font-size="10.00">b</text>
</g>
<!-- A+B+S&#45;&gt;A+B+R+S -->
<g id="edge18" class="edge">
<title>A+B+S&#45;&gt;A+B+R+S</title>
<path fill="none" stroke="black" d="M448.37,-355.9C462.69,-359.44 480.88,-363.93 497.53,-368.04"/>
<polygon fill="black" stroke="black" points="497.1,-371.54 507.65,-370.54 498.78,-364.74 497.1,-371.54"/>
<text text-anchor="middle" x="477.23" y="-367.47" font-family="Arial" font-size="10.00">a, b</text>
</g>
<!-- A+B+S&#45;&gt;A+B+C+S -->
<g id="edge17" class="edge">
<title>A+B+S&#45;&gt;A+B+C+S</title>
<path fill="none" stroke="black" d="M446.74,-340.34C488.83,-324.63 575.27,-292.36 625.31,-273.69"/>
<polygon fill="black" stroke="black" points="626.66,-276.92 634.81,-270.14 624.22,-270.36 626.66,-276.92"/>
<text text-anchor="middle" x="544.82" y="-321.47" font-family="Arial" font-size="10.00">c</text>
</g>
<!-- A+C+S&#45;&gt;A+C+R+S -->
<g id="edge20" class="edge">
<title>A+C+S&#45;&gt;A+C+R+S</title>
<path fill="none" stroke="black" d="M448.67,-219.52C462.89,-215.78 480.86,-211.05 497.34,-206.71"/>
<polygon fill="black" stroke="black" points="498.58,-210 507.36,-204.07 496.8,-203.23 498.58,-210"/>
<text text-anchor="middle" x="477.23" y="-216.47" font-family="Arial" font-size="10.00">a, c</text>
</g>
<!-- A+C+S&#45;&gt;A+B+C+S -->
<g id="edge19" class="edge">
<title>A+C+S&#45;&gt;A+B+C+S</title>
<path fill="none" stroke="black" d="M445.67,-236.6C461.68,-243.02 483.59,-250.78 503.73,-254.47 541.76,-261.44 585.73,-262.3 617.88,-261.64"/>
<polygon fill="black" stroke="black" points="617.98,-265.14 627.88,-261.37 617.79,-258.14 617.98,-265.14"/>
<text text-anchor="middle" x="544.82" y="-265.47" font-family="Arial" font-size="10.00">b</text>
</g>
<!-- B+C+S&#45;&gt;B+C+R+S -->
<g id="edge25" class="edge">
<title>B+C+S&#45;&gt;B+C+R+S</title>
<path fill="none" stroke="black" d="M446.31,-64.15C462.21,-70.56 483.5,-79.14 502.12,-86.65"/>
<polygon fill="black" stroke="black" points="500.99,-89.97 511.58,-90.47 503.61,-83.48 500.99,-89.97"/>
<text text-anchor="middle" x="477.23" y="-82.47" font-family="Arial" font-size="10.00">b, c</text>
</g>
<!-- B+C+S&#45;&gt;A+B+C+S -->
<g id="edge24" class="edge">
<title>B+C+S&#45;&gt;A+B+C+S</title>
<path fill="none" stroke="black" d="M448.61,-47.51C483.48,-39.94 545.3,-32.47 585.9,-61.47 641.4,-101.11 657.16,-186.67 661.63,-231.22"/>
<polygon fill="black" stroke="black" points="658.16,-231.69 662.52,-241.35 665.13,-231.08 658.16,-231.69"/>
<text text-anchor="middle" x="544.82" y="-64.47" font-family="Arial" font-size="10.00">a</text>
</g>
<!-- A+B+C+S&#45;&gt;A+B+C+R+S -->
<g id="edge31" class="edge">
<title>A+B+C+S&#45;&gt;A+B+C+R+S</title>
<path fill="none" stroke="black" d="M701.04,-259.47C717.13,-259.47 736.54,-259.47 754.63,-259.47"/>
<polygon fill="black" stroke="black" points="754.8,-262.97 764.8,-259.47 754.8,-255.97 754.8,-262.97"/>
<text text-anchor="middle" x="732.9" y="-262.47" font-family="Arial" font-size="10.00">a, b, c</text>
</g>
</g>
</svg>
