<?xml version="1.0" encoding="UTF-8" standalone="no"?>
<!DOCTYPE svg PUBLIC "-//W3C//DTD SVG 1.1//EN"
 "http://www.w3.org/Graphics/SVG/1.1/DTD/svg11.dtd">
<!-- Generated by graphviz version 2.43.0 (0)
 -->
<!-- Title: finite_state_machine Pages: 1 -->
<svg width="874pt" height="510pt"
 viewBox="0.00 0.00 874.38 510.47" xmlns="http://www.w3.org/2000/svg" xmlns:xlink="http://www.w3.org/1999/xlink">
<g id="graph0" class="graph" transform="scale(1 1) rotate(0) translate(4 506.47)">
<title>finite_state_machine</title>
<polygon fill="white" stroke="transparent" points="-4,4 -4,-506.47 870.38,-506.47 870.38,4 -4,4"/>
<!-- minDfa: -->
<g id="node1" class="node">
<title>minDfa:</title>
<text text-anchor="middle" x="29" y="-194.37" font-family="Arial" font-size="12.00">minDfa:</text>
</g>
<!-- START -->
<g id="node2" class="node">
<title>START</title>
<ellipse fill="#e5e5e5" stroke="black" cx="29" cy="-235.47" rx="1.8" ry="1.8"/>
</g>
<!-- S -->
<g id="node10" class="node">
<title>S</title>
<ellipse fill="#e5e5e5" stroke="black" cx="122" cy="-235.47" rx="27" ry="18"/>
<text text-anchor="middle" x="122" y="-232.97" font-family="Arial" font-size="10.00">S</text>
</g>
<!-- START&#45;&gt;S -->
<g id="edge1" class="edge">
<title>START&#45;&gt;S</title>
<path fill="none" stroke="black" d="M31.02,-235.47C36.41,-235.47 62.09,-235.47 84.65,-235.47"/>
<polygon fill="black" stroke="black" points="84.71,-238.97 94.71,-235.47 84.71,-231.97 84.71,-238.97"/>
</g>
<!-- A+B+C+R+S -->
<g id="node3" class="node">
<title>A+B+C+R+S</title>
<ellipse fill="#e5e5e5" stroke="black" cx="817.64" cy="-259.47" rx="44.96" ry="18"/>
<ellipse fill="none" stroke="black" cx="817.64" cy="-259.47" rx="48.98" ry="22"/>
<text text-anchor="middle" x="817.64" y="-256.97" font-family="Arial" font-size="10.00">A+B+C+R+S</text>
</g>
<!-- A+B+C+R+S&#45;&gt;A+B+C+R+S -->
<g id="edge36" class="edge">
<title>A+B+C+R+S&#45;&gt;A+B+C+R+S</title>
<path fill="none" stroke="black" d="M803,-280.46C801.2,-290.55 806.07,-299.47 817.64,-299.47 825.04,-299.47 829.71,-295.81 831.63,-290.53"/>
<polygon fill="black" stroke="black" points="835.13,-290.66 832.27,-280.46 828.14,-290.21 835.13,-290.66"/>
<text text-anchor="middle" x="817.64" y="-302.47" font-family="Arial" font-size="10.00">a, b, c</text>
</g>
<!-- A+B+R+S -->
<g id="node4" class="node">
<title>A+B+R+S</title>
<ellipse fill="#e5e5e5" stroke="black" cx="548.82" cy="-379.47" rx="36.49" ry="18"/>
<ellipse fill="none" stroke="black" cx="548.82" cy="-379.47" rx="40.49" ry="22"/>
<text text-anchor="middle" x="548.82" y="-376.97" font-family="Arial" font-size="10.00">A+B+R+S</text>
</g>
<!-- A+B+R+S&#45;&gt;A+B+R+S -->
<g id="edge30" class="edge">
<title>A+B+R+S&#45;&gt;A+B+R+S</title>
<path fill="none" stroke="black" d="M537.42,-400.87C536.18,-410.79 539.98,-419.47 548.82,-419.47 554.34,-419.47 557.9,-416.08 559.49,-411.11"/>
<polygon fill="black" stroke="black" points="563,-411.09 560.21,-400.87 556.01,-410.59 563,-411.09"/>
<text text-anchor="middle" x="548.82" y="-422.47" font-family="Arial" font-size="10.00">a, b</text>
</g>
<!-- A+B+C+S -->
<g id="node17" class="node">
<title>A+B+C+S</title>
<ellipse fill="#e5e5e5" stroke="black" cx="668.4" cy="-259.47" rx="36.49" ry="18"/>
<text text-anchor="middle" x="668.4" y="-256.97" font-family="Arial" font-size="10.00">A+B+C+S</text>
</g>
<!-- A+B+R+S&#45;&gt;A+B+C+S -->
<g id="edge29" class="edge">
<title>A+B+R+S&#45;&gt;A+B+C+S</title>
<path fill="none" stroke="black" d="M580.53,-365.57C591.84,-359.51 604.23,-351.68 613.9,-342.47 630.87,-326.31 644.97,-303.74 654.43,-286.22"/>
<polygon fill="black" stroke="black" points="657.68,-287.56 659.19,-277.07 651.47,-284.33 657.68,-287.56"/>
<text text-anchor="middle" x="610.9" y="-349.47" font-family="Arial" font-size="10.00">c</text>
</g>
<!-- A+C+R+S -->
<g id="node5" class="node">
<title>A+C+R+S</title>
<ellipse fill="#e5e5e5" stroke="black" cx="548.82" cy="-194.47" rx="37.16" ry="18"/>
<ellipse fill="none" stroke="black" cx="548.82" cy="-194.47" rx="41.17" ry="22"/>
<text text-anchor="middle" x="548.82" y="-191.97" font-family="Arial" font-size="10.00">A+C+R+S</text>
</g>
<!-- A+C+R+S&#45;&gt;A+C+R+S -->
<g id="edge33" class="edge">
<title>A+C+R+S&#45;&gt;A+C+R+S</title>
<path fill="none" stroke="black" d="M537.42,-215.87C536.18,-225.79 539.98,-234.47 548.82,-234.47 554.34,-234.47 557.9,-231.08 559.49,-226.11"/>
<polygon fill="black" stroke="black" points="563,-226.09 560.21,-215.87 556.01,-225.59 563,-226.09"/>
<text text-anchor="middle" x="548.82" y="-237.47" font-family="Arial" font-size="10.00">a, c</text>
</g>
<!-- A+C+R+S&#45;&gt;A+B+C+S -->
<g id="edge32" class="edge">
<title>A+C+R+S&#45;&gt;A+B+C+S</title>
<path fill="none" stroke="black" d="M577.98,-210.04C594.99,-219.44 616.75,-231.47 634.54,-241.3"/>
<polygon fill="black" stroke="black" points="632.99,-244.44 643.44,-246.22 636.38,-238.32 632.99,-244.44"/>
<text text-anchor="middle" x="610.9" y="-232.47" font-family="Arial" font-size="10.00">b</text>
</g>
<!-- A+R+S -->
<g id="node6" class="node">
<title>A+R+S</title>
<ellipse fill="#e5e5e5" stroke="black" cx="320.43" cy="-420.47" rx="29.37" ry="18"/>
<ellipse fill="none" stroke="black" cx="320.43" cy="-420.47" rx="33.37" ry="22"/>
<text text-anchor="middle" x="320.43" y="-417.97" font-family="Arial" font-size="10.00">A+R+S</text>
</g>
<!-- A+R+S&#45;&gt;A+R+S -->
<g id="edge16" class="edge">
<title>A+R+S&#45;&gt;A+R+S</title>
<path fill="none" stroke="black" d="M310.51,-441.87C309.43,-451.79 312.73,-460.47 320.43,-460.47 325.25,-460.47 328.34,-457.08 329.72,-452.11"/>
<polygon fill="black" stroke="black" points="333.23,-452.06 330.36,-441.87 326.25,-451.63 333.23,-452.06"/>
<text text-anchor="middle" x="320.43" y="-463.47" font-family="Arial" font-size="10.00">a</text>
</g>
<!-- A+B+S -->
<g id="node14" class="node">
<title>A+B+S</title>
<ellipse fill="#e5e5e5" stroke="black" cx="425.3" cy="-349.47" rx="28.69" ry="18"/>
<text text-anchor="middle" x="425.3" y="-346.97" font-family="Arial" font-size="10.00">A+B+S</text>
</g>
<!-- A+R+S&#45;&gt;A+B+S -->
<g id="edge14" class="edge">
<title>A+R+S&#45;&gt;A+B+S</title>
<path fill="none" stroke="black" d="M353.95,-421.63C362.18,-420.72 370.72,-418.64 377.87,-414.47 392.95,-405.66 404.43,-389.79 412.2,-375.94"/>
<polygon fill="black" stroke="black" points="415.46,-377.26 416.99,-366.78 409.26,-374.02 415.46,-377.26"/>
<text text-anchor="middle" x="374.87" y="-420.47" font-family="Arial" font-size="10.00">b</text>
</g>
<!-- A+C+S -->
<g id="node15" class="node">
<title>A+C+S</title>
<ellipse fill="#e5e5e5" stroke="black" cx="425.3" cy="-226.47" rx="29.37" ry="18"/>
<text text-anchor="middle" x="425.3" y="-223.97" font-family="Arial" font-size="10.00">A+C+S</text>
</g>
<!-- A+R+S&#45;&gt;A+C+S -->
<g id="edge15" class="edge">
<title>A+R+S&#45;&gt;A+C+S</title>
<path fill="none" stroke="black" d="M347.46,-407.1C358.23,-400.41 370.01,-391.39 377.87,-380.47 378.82,-379.15 403.04,-297.98 416.11,-254.03"/>
<polygon fill="black" stroke="black" points="419.53,-254.82 419.02,-244.24 412.82,-252.83 419.53,-254.82"/>
<text text-anchor="middle" x="374.87" y="-391.47" font-family="Arial" font-size="10.00">c</text>
</g>
<!-- B+C+R+S -->
<g id="node7" class="node">
<title>B+C+R+S</title>
<ellipse fill="#e5e5e5" stroke="black" cx="548.82" cy="-103.47" rx="37.16" ry="18"/>
<ellipse fill="none" stroke="black" cx="548.82" cy="-103.47" rx="41.17" ry="22"/>
<text text-anchor="middle" x="548.82" y="-100.97" font-family="Arial" font-size="10.00">B+C+R+S</text>
</g>
<!-- B+C+R+S&#45;&gt;B+C+R+S -->
<g id="edge35" class="edge">
<title>B+C+R+S&#45;&gt;B+C+R+S</title>
<path fill="none" stroke="black" d="M537.42,-124.87C536.18,-134.79 539.98,-143.47 548.82,-143.47 554.34,-143.47 557.9,-140.08 559.49,-135.11"/>
<polygon fill="black" stroke="black" points="563,-135.09 560.21,-124.87 556.01,-134.59 563,-135.09"/>
<text text-anchor="middle" x="548.82" y="-146.47" font-family="Arial" font-size="10.00">b, c</text>
</g>
<!-- B+C+R+S&#45;&gt;A+B+C+S -->
<g id="edge34" class="edge">
<title>B+C+R+S&#45;&gt;A+B+C+S</title>
<path fill="none" stroke="black" d="M565.19,-123.86C586.58,-152.25 625.31,-203.63 648.46,-234.34"/>
<polygon fill="black" stroke="black" points="645.74,-236.54 654.55,-242.42 651.33,-232.33 645.74,-236.54"/>
<text text-anchor="middle" x="610.9" y="-189.47" font-family="Arial" font-size="10.00">a</text>
</g>
<!-- B+R+S -->
<g id="node8" class="node">
<title>B+R+S</title>
<ellipse fill="#e5e5e5" stroke="black" cx="320.43" cy="-235.47" rx="29.37" ry="18"/>
<ellipse fill="none" stroke="black" cx="320.43" cy="-235.47" rx="33.37" ry="22"/>
<text text-anchor="middle" x="320.43" y="-232.97" font-family="Arial" font-size="10.00">B+R+S</text>
</g>
<!-- B+R+S&#45;&gt;B+R+S -->
<g id="edge23" class="edge">
<title>B+R+S&#45;&gt;B+R+S</title>
<path fill="none" stroke="black" d="M310.51,-256.87C309.43,-266.79 312.73,-275.47 320.43,-275.47 325.25,-275.47 328.34,-272.08 329.72,-267.11"/>
<polygon fill="black" stroke="black" points="333.23,-267.06 330.36,-256.87 326.25,-266.63 333.23,-267.06"/>
<text text-anchor="middle" x="320.43" y="-278.47" font-family="Arial" font-size="10.00">b</text>
</g>
<!-- B+R+S&#45;&gt;A+B+S -->
<g id="edge21" class="edge">
<title>B+R+S&#45;&gt;A+B+S</title>
<path fill="none" stroke="black" d="M338.52,-254.15C349.74,-266.43 364.71,-282.87 377.87,-297.47 386.39,-306.92 395.75,-317.39 403.82,-326.43"/>
<polygon fill="black" stroke="black" points="401.26,-328.82 410.52,-333.96 406.48,-324.17 401.26,-328.82"/>
<text text-anchor="middle" x="374.87" y="-300.47" font-family="Arial" font-size="10.00">a</text>
</g>
<!-- B+C+S -->
<g id="node16" class="node">
<title>B+C+S</title>
<ellipse fill="#e5e5e5" stroke="black" cx="425.3" cy="-54.47" rx="29.37" ry="18"/>
<text text-anchor="middle" x="425.3" y="-51.97" font-family="Arial" font-size="10.00">B+C+S</text>
</g>
<!-- B+R+S&#45;&gt;B+C+S -->
<g id="edge22" class="edge">
<title>B+R+S&#45;&gt;B+C+S</title>
<path fill="none" stroke="black" d="M339.66,-217.24C344.61,-211.78 349.73,-205.61 353.87,-199.47 379.71,-161.09 401.55,-111.82 413.78,-81.72"/>
<polygon fill="black" stroke="black" points="417.08,-82.87 417.55,-72.29 410.58,-80.27 417.08,-82.87"/>
<text text-anchor="middle" x="374.87" y="-172.47" font-family="Arial" font-size="10.00">c</text>
</g>
<!-- C+R+S -->
<g id="node9" class="node">
<title>C+R+S</title>
<ellipse fill="#e5e5e5" stroke="black" cx="320.43" cy="-50.47" rx="29.37" ry="18"/>
<ellipse fill="none" stroke="black" cx="320.43" cy="-50.47" rx="33.37" ry="22"/>
<text text-anchor="middle" x="320.43" y="-47.97" font-family="Arial" font-size="10.00">C+R+S</text>
</g>
<!-- C+R+S&#45;&gt;C+R+S -->
<g id="edge28" class="edge">
<title>C+R+S&#45;&gt;C+R+S</title>
<path fill="none" stroke="black" d="M310.51,-71.87C309.43,-81.79 312.73,-90.47 320.43,-90.47 325.25,-90.47 328.34,-87.08 329.72,-82.11"/>
<polygon fill="black" stroke="black" points="333.23,-82.06 330.36,-71.87 326.25,-81.63 333.23,-82.06"/>
<text text-anchor="middle" x="320.43" y="-93.47" font-family="Arial" font-size="10.00">c</text>
</g>
<!-- C+R+S&#45;&gt;A+C+S -->
<g id="edge26" class="edge">
<title>C+R+S&#45;&gt;A+C+S</title>
<path fill="none" stroke="black" d="M335.21,-70.52C346.99,-87.94 364.17,-113.99 377.87,-137.47 389.87,-158.04 402.29,-182.02 411.27,-199.9"/>
<polygon fill="black" stroke="black" points="408.28,-201.75 415.87,-209.14 414.55,-198.63 408.28,-201.75"/>
<text text-anchor="middle" x="374.87" y="-140.47" font-family="Arial" font-size="10.00">a</text>
</g>
<!-- C+R+S&#45;&gt;B+C+S -->
<g id="edge27" class="edge">
<title>C+R+S&#45;&gt;B+C+S</title>
<path fill="none" stroke="black" d="M353.98,-51.73C364.05,-52.12 375.23,-52.56 385.67,-52.96"/>
<polygon fill="black" stroke="black" points="385.65,-56.47 395.78,-53.36 385.93,-49.47 385.65,-56.47"/>
<text text-anchor="middle" x="374.87" y="-56.47" font-family="Arial" font-size="10.00">b</text>
</g>
<!-- A+S -->
<g id="node11" class="node">
<title>A+S</title>
<ellipse fill="#e5e5e5" stroke="black" cx="218" cy="-390.47" rx="27" ry="18"/>
<text text-anchor="middle" x="218" y="-387.97" font-family="Arial" font-size="10.00">A+S</text>
</g>
<!-- S&#45;&gt;A+S -->
<g id="edge2" class="edge">
<title>S&#45;&gt;A+S</title>
<path fill="none" stroke="black" d="M133.06,-252.05C149.53,-279.21 182.34,-333.31 201.7,-365.24"/>
<polygon fill="black" stroke="black" points="198.83,-367.26 207.01,-374 204.82,-363.63 198.83,-367.26"/>
<text text-anchor="middle" x="170" y="-321.47" font-family="Arial" font-size="10.00">a</text>
</g>
<!-- B+S -->
<g id="node12" class="node">
<title>B+S</title>
<ellipse fill="#e5e5e5" stroke="black" cx="218" cy="-235.47" rx="27" ry="18"/>
<text text-anchor="middle" x="218" y="-232.97" font-family="Arial" font-size="10.00">B+S</text>
</g>
<!-- S&#45;&gt;B+S -->
<g id="edge3" class="edge">
<title>S&#45;&gt;B+S</title>
<path fill="none" stroke="black" d="M149.18,-235.47C158.96,-235.47 170.25,-235.47 180.77,-235.47"/>
<polygon fill="black" stroke="black" points="180.96,-238.97 190.96,-235.47 180.96,-231.97 180.96,-238.97"/>
<text text-anchor="middle" x="170" y="-238.47" font-family="Arial" font-size="10.00">b</text>
</g>
<!-- C+S -->
<g id="node13" class="node">
<title>C+S</title>
<ellipse fill="#e5e5e5" stroke="black" cx="218" cy="-139.47" rx="27" ry="18"/>
<text text-anchor="middle" x="218" y="-136.97" font-family="Arial" font-size="10.00">C+S</text>
</g>
<!-- S&#45;&gt;C+S -->
<g id="edge4" class="edge">
<title>S&#45;&gt;C+S</title>
<path fill="none" stroke="black" d="M137.69,-220.47C153.14,-204.69 177.62,-179.68 195.3,-161.63"/>
<polygon fill="black" stroke="black" points="197.92,-163.96 202.42,-154.36 192.92,-159.06 197.92,-163.96"/>
<text text-anchor="middle" x="170" y="-193.47" font-family="Arial" font-size="10.00">c</text>
</g>
<!-- A+S&#45;&gt;A+R+S -->
<g id="edge7" class="edge">
<title>A+S&#45;&gt;A+R+S</title>
<path fill="none" stroke="black" d="M243.06,-397.65C254.05,-400.94 267.35,-404.91 279.76,-408.62"/>
<polygon fill="black" stroke="black" points="278.88,-412.01 289.46,-411.51 280.88,-405.3 278.88,-412.01"/>
<text text-anchor="middle" x="266" y="-408.47" font-family="Arial" font-size="10.00">a</text>
</g>
<!-- A+S&#45;&gt;A+B+S -->
<g id="edge5" class="edge">
<title>A+S&#45;&gt;A+B+S</title>
<path fill="none" stroke="black" d="M226.24,-407.95C236.28,-429.58 256.67,-465.37 287,-480.47 313.6,-493.71 328.36,-495.71 353.87,-480.47 391.1,-458.21 409.8,-408.74 418.25,-377.37"/>
<polygon fill="black" stroke="black" points="421.69,-378.04 420.74,-367.49 414.91,-376.33 421.69,-378.04"/>
<text text-anchor="middle" x="320.43" y="-494.47" font-family="Arial" font-size="10.00">b</text>
</g>
<!-- A+S&#45;&gt;A+C+S -->
<g id="edge6" class="edge">
<title>A+S&#45;&gt;A+C+S</title>
<path fill="none" stroke="black" d="M244.31,-385.83C272.97,-379.64 320.06,-366.55 353.87,-342.47 384.66,-320.53 404.53,-280.5 415.06,-253.69"/>
<polygon fill="black" stroke="black" points="418.42,-254.72 418.65,-244.13 411.86,-252.27 418.42,-254.72"/>
<text text-anchor="middle" x="320.43" y="-377.47" font-family="Arial" font-size="10.00">c</text>
</g>
<!-- B+S&#45;&gt;B+R+S -->
<g id="edge10" class="edge">
<title>B+S&#45;&gt;B+R+S</title>
<path fill="none" stroke="black" d="M245.13,-235.47C254.82,-235.47 266.07,-235.47 276.85,-235.47"/>
<polygon fill="black" stroke="black" points="276.97,-238.97 286.97,-235.47 276.97,-231.97 276.97,-238.97"/>
<text text-anchor="middle" x="266" y="-238.47" font-family="Arial" font-size="10.00">b</text>
</g>
<!-- B+S&#45;&gt;A+B+S -->
<g id="edge8" class="edge">
<title>B+S&#45;&gt;A+B+S</title>
<path fill="none" stroke="black" d="M233.19,-250.69C246.17,-263.92 266.45,-282.9 287,-295.47 319.45,-315.31 360.45,-330.3 389.16,-339.39"/>
<polygon fill="black" stroke="black" points="388.18,-342.76 398.77,-342.36 390.25,-336.07 388.18,-342.76"/>
<text text-anchor="middle" x="320.43" y="-330.47" font-family="Arial" font-size="10.00">a</text>
</g>
<!-- B+S&#45;&gt;B+C+S -->
<g id="edge9" class="edge">
<title>B+S&#45;&gt;B+C+S</title>
<path fill="none" stroke="black" d="M228.32,-218.77C239.76,-199.78 260.89,-169.12 287,-151.47 322.01,-127.79 343.94,-148.66 377.87,-123.47 392.61,-112.52 404.16,-95.43 412.05,-80.99"/>
<polygon fill="black" stroke="black" points="415.23,-82.47 416.71,-71.98 409.01,-79.26 415.23,-82.47"/>
<text text-anchor="middle" x="320.43" y="-154.47" font-family="Arial" font-size="10.00">c</text>
</g>
<!-- C+S&#45;&gt;C+R+S -->
<g id="edge13" class="edge">
<title>C+S&#45;&gt;C+R+S</title>
<path fill="none" stroke="black" d="M235.14,-125.17C250.33,-111.7 273.41,-91.25 291.58,-75.15"/>
<polygon fill="black" stroke="black" points="294.37,-77.35 299.53,-68.1 289.73,-72.11 294.37,-77.35"/>
<text text-anchor="middle" x="266" y="-103.47" font-family="Arial" font-size="10.00">c</text>
</g>
<!-- C+S&#45;&gt;A+C+S -->
<g id="edge11" class="edge">
<title>C+S&#45;&gt;A+C+S</title>
<path fill="none" stroke="black" d="M242.07,-148.24C269.06,-158.61 315,-176.6 353.87,-193.47 366.57,-198.98 380.4,-205.38 392.42,-211.06"/>
<polygon fill="black" stroke="black" points="391.08,-214.3 401.61,-215.43 394.09,-207.98 391.08,-214.3"/>
<text text-anchor="middle" x="320.43" y="-196.47" font-family="Arial" font-size="10.00">a</text>
</g>
<!-- C+S&#45;&gt;B+C+S -->
<g id="edge12" class="edge">
<title>C+S&#45;&gt;B+C+S</title>
<path fill="none" stroke="black" d="M222.23,-121.47C228.64,-91.78 246.05,-33.35 287,-8.47 322.82,13.3 370.23,-12.81 398.93,-33.66"/>
<polygon fill="black" stroke="black" points="397.12,-36.67 407.21,-39.9 401.33,-31.08 397.12,-36.67"/>
<text text-anchor="middle" x="320.43" y="-11.47" font-family="Arial" font-size="10.00">b</text>
</g>
<!-- A+B+S&#45;&gt;A+B+R+S -->
<g id="edge18" class="edge">
<title>A+B+S&#45;&gt;A+B+R+S</title>
<path fill="none" stroke="black" d="M452.37,-355.9C466.69,-359.44 484.88,-363.93 501.53,-368.04"/>
<polygon fill="black" stroke="black" points="501.1,-371.54 511.65,-370.54 502.78,-364.74 501.1,-371.54"/>
<text text-anchor="middle" x="481.23" y="-367.47" font-family="Arial" font-size="10.00">a, b</text>
</g>
<!-- A+B+S&#45;&gt;A+B+C+S -->
<g id="edge17" class="edge">
<title>A+B+S&#45;&gt;A+B+C+S</title>
<path fill="none" stroke="black" d="M450.74,-340.34C492.83,-324.63 579.27,-292.36 629.31,-273.69"/>
<polygon fill="black" stroke="black" points="630.66,-276.92 638.81,-270.14 628.22,-270.36 630.66,-276.92"/>
<text text-anchor="middle" x="548.82" y="-321.47" font-family="Arial" font-size="10.00">c</text>
</g>
<!-- A+C+S&#45;&gt;A+C+R+S -->
<g id="edge20" class="edge">
<title>A+C+S&#45;&gt;A+C+R+S</title>
<path fill="none" stroke="black" d="M452.67,-219.52C466.89,-215.78 484.86,-211.05 501.34,-206.71"/>
<polygon fill="black" stroke="black" points="502.58,-210 511.36,-204.07 500.8,-203.23 502.58,-210"/>
<text text-anchor="middle" x="481.23" y="-216.47" font-family="Arial" font-size="10.00">a, c</text>
</g>
<!-- A+C+S&#45;&gt;A+B+C+S -->
<g id="edge19" class="edge">
<title>A+C+S&#45;&gt;A+B+C+S</title>
<path fill="none" stroke="black" d="M449.67,-236.6C465.68,-243.02 487.59,-250.78 507.73,-254.47 545.76,-261.44 589.73,-262.3 621.88,-261.64"/>
<polygon fill="black" stroke="black" points="621.98,-265.14 631.88,-261.37 621.79,-258.14 621.98,-265.14"/>
<text text-anchor="middle" x="548.82" y="-265.47" font-family="Arial" font-size="10.00">b</text>
</g>
<!-- B+C+S&#45;&gt;B+C+R+S -->
<g id="edge25" class="edge">
<title>B+C+S&#45;&gt;B+C+R+S</title>
<path fill="none" stroke="black" d="M450.31,-64.15C466.21,-70.56 487.5,-79.14 506.12,-86.65"/>
<polygon fill="black" stroke="black" points="504.99,-89.97 515.58,-90.47 507.61,-83.48 504.99,-89.97"/>
<text text-anchor="middle" x="481.23" y="-82.47" font-family="Arial" font-size="10.00">b, c</text>
</g>
<!-- B+C+S&#45;&gt;A+B+C+S -->
<g id="edge24" class="edge">
<title>B+C+S&#45;&gt;A+B+C+S</title>
<path fill="none" stroke="black" d="M452.61,-47.51C487.48,-39.94 549.3,-32.47 589.9,-61.47 645.4,-101.11 661.16,-186.67 665.63,-231.22"/>
<polygon fill="black" stroke="black" points="662.16,-231.69 666.52,-241.35 669.13,-231.08 662.16,-231.69"/>
<text text-anchor="middle" x="548.82" y="-64.47" font-family="Arial" font-size="10.00">a</text>
</g>
<!-- A+B+C+S&#45;&gt;A+B+C+R+S -->
<g id="edge31" class="edge">
<title>A+B+C+S&#45;&gt;A+B+C+R+S</title>
<path fill="none" stroke="black" d="M705.04,-259.47C721.13,-259.47 740.54,-259.47 758.63,-259.47"/>
<polygon fill="black" stroke="black" points="758.8,-262.97 768.8,-259.47 758.8,-255.97 758.8,-262.97"/>
<text text-anchor="middle" x="736.9" y="-262.47" font-family="Arial" font-size="10.00">a, b, c</text>
</g>
</g>
</svg>
