<?xml version="1.0" encoding="UTF-8" standalone="no"?>
<!DOCTYPE svg PUBLIC "-//W3C//DTD SVG 1.1//EN"
 "http://www.w3.org/Graphics/SVG/1.1/DTD/svg11.dtd">
<!-- Generated by graphviz version 2.43.0 (0)
 -->
<!-- Title: finite_state_machine Pages: 1 -->
<svg width="455pt" height="153pt"
 viewBox="0.00 0.00 455.00 153.00" xmlns="http://www.w3.org/2000/svg" xmlns:xlink="http://www.w3.org/1999/xlink">
<g id="graph0" class="graph" transform="scale(1 1) rotate(0) translate(4 149)">
<title>finite_state_machine</title>
<polygon fill="white" stroke="transparent" points="-4,4 -4,-149 451,-149 451,4 -4,4"/>
<!-- nfa: -->
<g id="node1" class="node">
<title>nfa:</title>
<text text-anchor="middle" x="27" y="-14.9" font-family="Arial" font-size="12.00">nfa:</text>
</g>
<!-- START -->
<g id="node2" class="node">
<title>START</title>
<ellipse fill="#e5e5e5" stroke="black" cx="27" cy="-56" rx="1.8" ry="1.8"/>
</g>
<!-- S -->
<g id="node4" class="node">
<title>S</title>
<ellipse fill="#e5e5e5" stroke="black" cx="109" cy="-56" rx="18" ry="18"/>
<text text-anchor="middle" x="109" y="-53.5" font-family="Arial" font-size="10.00">S</text>
</g>
<!-- START&#45;&gt;S -->
<g id="edge1" class="edge">
<title>START&#45;&gt;S</title>
<path fill="none" stroke="black" d="M28.9,-56C33.99,-56 59.68,-56 80.43,-56"/>
<polygon fill="black" stroke="black" points="80.69,-59.5 90.69,-56 80.69,-52.5 80.69,-59.5"/>
</g>
<!-- E -->
<g id="node3" class="node">
<title>E</title>
<ellipse fill="#e5e5e5" stroke="black" cx="425" cy="-94" rx="18" ry="18"/>
<ellipse fill="none" stroke="black" cx="425" cy="-94" rx="22" ry="22"/>
<text text-anchor="middle" x="425" y="-91.5" font-family="Arial" font-size="10.00">E</text>
</g>
<!-- E&#45;&gt;E -->
<g id="edge8" class="edge">
<title>E&#45;&gt;E</title>
<path fill="none" stroke="black" d="M417.32,-114.99C416.37,-125.09 418.93,-134 425,-134 428.89,-134 431.34,-130.34 432.35,-125.06"/>
<polygon fill="black" stroke="black" points="435.85,-125.1 432.68,-114.99 428.85,-124.87 435.85,-125.1"/>
<text text-anchor="middle" x="425" y="-137" font-family="Arial" font-size="10.00">0, 1</text>
</g>
<!-- A -->
<g id="node5" class="node">
<title>A</title>
<ellipse fill="#e5e5e5" stroke="black" cx="187" cy="-103" rx="18" ry="18"/>
<text text-anchor="middle" x="187" y="-100.5" font-family="Arial" font-size="10.00">A</text>
</g>
<!-- S&#45;&gt;A -->
<g id="edge2" class="edge">
<title>S&#45;&gt;A</title>
<path fill="none" stroke="black" d="M124.65,-65.06C135.48,-71.76 150.44,-81.01 162.88,-88.7"/>
<polygon fill="black" stroke="black" points="161.05,-91.68 171.39,-93.97 164.73,-85.73 161.05,-91.68"/>
<text text-anchor="middle" x="148" y="-83" font-family="Arial" font-size="10.00">0</text>
</g>
<!-- B -->
<g id="node6" class="node">
<title>B</title>
<ellipse fill="#e5e5e5" stroke="black" cx="265" cy="-56" rx="18" ry="18"/>
<text text-anchor="middle" x="265" y="-53.5" font-family="Arial" font-size="10.00">B</text>
</g>
<!-- S&#45;&gt;B -->
<g id="edge3" class="edge">
<title>S&#45;&gt;B</title>
<path fill="none" stroke="black" d="M127.07,-56C153.55,-56 204.78,-56 236.51,-56"/>
<polygon fill="black" stroke="black" points="236.85,-59.5 246.85,-56 236.85,-52.5 236.85,-59.5"/>
<text text-anchor="middle" x="187" y="-59" font-family="Arial" font-size="10.00">1</text>
</g>
<!-- A&#45;&gt;E -->
<g id="edge5" class="edge">
<title>A&#45;&gt;E</title>
<path fill="none" stroke="black" d="M204.71,-106.24C216.48,-108.35 232.64,-110.91 247,-112 298.36,-115.89 357.91,-107.08 393.19,-100.46"/>
<polygon fill="black" stroke="black" points="394.17,-103.83 403.32,-98.49 392.84,-96.96 394.17,-103.83"/>
<text text-anchor="middle" x="304" y="-115" font-family="Arial" font-size="10.00">0</text>
</g>
<!-- A&#45;&gt;B -->
<g id="edge4" class="edge">
<title>A&#45;&gt;B</title>
<path fill="none" stroke="black" d="M202.65,-93.94C213.48,-87.24 228.44,-77.99 240.88,-70.3"/>
<polygon fill="black" stroke="black" points="242.73,-73.27 249.39,-65.03 239.05,-67.32 242.73,-73.27"/>
<text text-anchor="middle" x="226" y="-83" font-family="Arial" font-size="10.00">1</text>
</g>
<!-- B&#45;&gt;B -->
<g id="edge6" class="edge">
<title>B&#45;&gt;B</title>
<path fill="none" stroke="black" d="M258.27,-73.04C256.89,-82.86 259.14,-92 265,-92 268.66,-92 270.92,-88.43 271.75,-83.35"/>
<polygon fill="black" stroke="black" points="275.25,-83.03 271.73,-73.04 268.25,-83.04 275.25,-83.03"/>
<text text-anchor="middle" x="265" y="-95" font-family="Arial" font-size="10.00">1</text>
</g>
<!-- C -->
<g id="node7" class="node">
<title>C</title>
<ellipse fill="#e5e5e5" stroke="black" cx="343" cy="-56" rx="18" ry="18"/>
<text text-anchor="middle" x="343" y="-53.5" font-family="Arial" font-size="10.00">C</text>
</g>
<!-- B&#45;&gt;C -->
<g id="edge7" class="edge">
<title>B&#45;&gt;C</title>
<path fill="none" stroke="black" d="M283.25,-56C292.48,-56 304.07,-56 314.51,-56"/>
<polygon fill="black" stroke="black" points="314.82,-59.5 324.82,-56 314.82,-52.5 314.82,-59.5"/>
<text text-anchor="middle" x="304" y="-59" font-family="Arial" font-size="10.00">0</text>
</g>
<!-- C&#45;&gt;E -->
<g id="edge9" class="edge">
<title>C&#45;&gt;E</title>
<path fill="none" stroke="black" d="M359.81,-63.51C370.01,-68.35 383.58,-74.8 395.61,-80.52"/>
<polygon fill="black" stroke="black" points="394.31,-83.77 404.84,-84.9 397.31,-77.45 394.31,-83.77"/>
<text text-anchor="middle" x="382" y="-78" font-family="Arial" font-size="10.00">0</text>
</g>
<!-- C&#45;&gt;S -->
<g id="edge10" class="edge">
<title>C&#45;&gt;S</title>
<path fill="none" stroke="black" d="M327.1,-47C315.54,-40.57 298.85,-32.45 283,-29 231.05,-17.68 169.33,-34.43 135.44,-46.18"/>
<polygon fill="black" stroke="black" points="134.08,-42.95 125.86,-49.63 136.45,-49.54 134.08,-42.95"/>
<text text-anchor="middle" x="226" y="-30" font-family="Arial" font-size="10.00">1</text>
</g>
</g>
</svg>
