<?xml version="1.0" encoding="UTF-8" standalone="no"?>
<!DOCTYPE svg PUBLIC "-//W3C//DTD SVG 1.1//EN"
 "http://www.w3.org/Graphics/SVG/1.1/DTD/svg11.dtd">
<!-- Generated by graphviz version 2.43.0 (0)
 -->
<!-- Title: finite_state_machine Pages: 1 -->
<svg width="395pt" height="126pt"
 viewBox="0.00 0.00 395.00 126.00" xmlns="http://www.w3.org/2000/svg" xmlns:xlink="http://www.w3.org/1999/xlink">
<g id="graph0" class="graph" transform="scale(1 1) rotate(0) translate(4 122)">
<title>finite_state_machine</title>
<polygon fill="white" stroke="transparent" points="-4,4 -4,-122 391,-122 391,4 -4,4"/>
<!-- nfa: -->
<g id="node1" class="node">
<title>nfa:</title>
<text text-anchor="middle" x="27" y="-14.9" font-family="Arial" font-size="12.00">nfa:</text>
</g>
<!-- START -->
<g id="node2" class="node">
<title>START</title>
<ellipse fill="#e5e5e5" stroke="black" cx="27" cy="-56" rx="1.8" ry="1.8"/>
</g>
<!-- S -->
<g id="node5" class="node">
<title>S</title>
<ellipse fill="#e5e5e5" stroke="black" cx="109" cy="-56" rx="18" ry="18"/>
<text text-anchor="middle" x="109" y="-53.5" font-family="Arial" font-size="10.00">S</text>
</g>
<!-- START&#45;&gt;S -->
<g id="edge1" class="edge">
<title>START&#45;&gt;S</title>
<path fill="none" stroke="black" d="M28.9,-56C33.99,-56 59.68,-56 80.43,-56"/>
<polygon fill="black" stroke="black" points="80.69,-59.5 90.69,-56 80.69,-52.5 80.69,-59.5"/>
</g>
<!-- A -->
<g id="node3" class="node">
<title>A</title>
<ellipse fill="#e5e5e5" stroke="black" cx="356" cy="-96" rx="27" ry="18"/>
<ellipse fill="none" stroke="black" cx="356" cy="-96" rx="31" ry="22"/>
<text text-anchor="middle" x="356" y="-93.5" font-family="Arial" font-size="10.00">A</text>
</g>
<!-- B -->
<g id="node6" class="node">
<title>B</title>
<ellipse fill="#e5e5e5" stroke="black" cx="187" cy="-56" rx="18" ry="18"/>
<text text-anchor="middle" x="187" y="-53.5" font-family="Arial" font-size="10.00">B</text>
</g>
<!-- A&#45;&gt;B -->
<g id="edge7" class="edge">
<title>A&#45;&gt;B</title>
<path fill="none" stroke="black" d="M324.72,-94.86C302.79,-93.43 272.63,-90.22 247,-83 235.05,-79.63 222.45,-74.16 211.97,-69.02"/>
<polygon fill="black" stroke="black" points="213.53,-65.88 203.03,-64.46 210.35,-72.12 213.53,-65.88"/>
<text text-anchor="middle" x="265" y="-93" font-family="Arial" font-size="10.00">b</text>
</g>
<!-- FINAL -->
<g id="node4" class="node">
<title>FINAL</title>
<ellipse fill="#e5e5e5" stroke="black" cx="356" cy="-32" rx="27" ry="18"/>
<ellipse fill="none" stroke="black" cx="356" cy="-32" rx="31" ry="22"/>
<text text-anchor="middle" x="356" y="-29.5" font-family="Arial" font-size="10.00">FINAL</text>
</g>
<!-- S&#45;&gt;B -->
<g id="edge2" class="edge">
<title>S&#45;&gt;B</title>
<path fill="none" stroke="black" d="M127.25,-56C136.48,-56 148.07,-56 158.51,-56"/>
<polygon fill="black" stroke="black" points="158.82,-59.5 168.82,-56 158.82,-52.5 158.82,-59.5"/>
<text text-anchor="middle" x="148" y="-59" font-family="Arial" font-size="10.00">a</text>
</g>
<!-- B&#45;&gt;FINAL -->
<g id="edge4" class="edge">
<title>B&#45;&gt;FINAL</title>
<path fill="none" stroke="black" d="M200.95,-44.5C212.22,-35.32 229.47,-23.16 247,-18 270.07,-11.21 296.87,-14.63 318.01,-19.78"/>
<polygon fill="black" stroke="black" points="317.32,-23.22 327.89,-22.41 319.12,-16.45 317.32,-23.22"/>
<text text-anchor="middle" x="265" y="-21" font-family="Arial" font-size="10.00">a</text>
</g>
<!-- C -->
<g id="node7" class="node">
<title>C</title>
<ellipse fill="#e5e5e5" stroke="black" cx="265" cy="-56" rx="18" ry="18"/>
<text text-anchor="middle" x="265" y="-53.5" font-family="Arial" font-size="10.00">C</text>
</g>
<!-- B&#45;&gt;C -->
<g id="edge3" class="edge">
<title>B&#45;&gt;C</title>
<path fill="none" stroke="black" d="M205.25,-56C214.48,-56 226.07,-56 236.51,-56"/>
<polygon fill="black" stroke="black" points="236.82,-59.5 246.82,-56 236.82,-52.5 236.82,-59.5"/>
<text text-anchor="middle" x="226" y="-59" font-family="Arial" font-size="10.00">c</text>
</g>
<!-- C&#45;&gt;A -->
<g id="edge5" class="edge">
<title>C&#45;&gt;A</title>
<path fill="none" stroke="black" d="M281.91,-63.15C292.53,-67.92 306.92,-74.39 320.13,-80.33"/>
<polygon fill="black" stroke="black" points="318.9,-83.61 329.46,-84.52 321.77,-77.23 318.9,-83.61"/>
<text text-anchor="middle" x="304" y="-76" font-family="Arial" font-size="10.00">a</text>
</g>
<!-- C&#45;&gt;FINAL -->
<g id="edge6" class="edge">
<title>C&#45;&gt;FINAL</title>
<path fill="none" stroke="black" d="M282.74,-51.49C292.42,-48.88 305.01,-45.48 316.97,-42.26"/>
<polygon fill="black" stroke="black" points="318.04,-45.59 326.78,-39.61 316.22,-38.83 318.04,-45.59"/>
<text text-anchor="middle" x="304" y="-49" font-family="Arial" font-size="10.00">b</text>
</g>
</g>
</svg>
